<svg data-bbox="5 5 190 190" viewBox="0 0 200 200" height="200" width="200" xmlns="http://www.w3.org/2000/svg" data-type="color">
    <g>
        <path d="M167.175 32.825C149.232 14.882 125.375 5 100 5s-49.232 9.882-67.175 27.825S5 74.625 5 100s9.882 49.232 27.825 67.175S74.625 195 100 195s49.232-9.882 67.175-27.825S195 125.375 195 100s-9.882-49.232-27.825-67.175zm-1.242 133.108c-17.612 17.611-41.027 27.31-65.933 27.31s-48.322-9.699-65.933-27.31C16.456 148.322 6.757 124.906 6.757 100s9.699-48.322 27.31-65.933C51.678 16.456 75.094 6.757 100 6.757s48.322 9.699 65.933 27.31c17.611 17.612 27.31 41.027 27.31 65.933s-9.699 48.322-27.31 65.933zm-2.38-129.038c-16.727-16.727-38.966-25.939-62.621-25.939s-45.894 9.212-62.621 25.939C21.585 53.621 12.373 75.86 12.373 99.515s9.212 45.894 25.938 62.621c16.727 16.727 38.966 25.939 62.621 25.939s45.894-9.212 62.621-25.939 25.939-38.966 25.939-62.621-9.212-45.894-25.939-62.62zm-1.242 123.999c-16.395 16.395-38.193 25.424-61.379 25.424s-44.984-9.029-61.379-25.424C23.158 144.499 14.13 122.701 14.13 99.515s9.029-44.984 25.424-61.379c16.395-16.395 38.193-25.424 61.379-25.424s44.984 9.029 61.379 25.424c16.395 16.395 25.424 38.193 25.424 61.379s-9.03 44.984-25.425 61.379zm20.101-64.939c-.14.022-3.477.58-6.428 4.019-.369.431-.69.853-.97 1.263a64.174 64.174 0 0 0-3.036-19.022 63.992 63.992 0 0 0-3.011-7.639c.722-.758 2.776-3.066 3.54-5.518 1.099-3.525.009-7.441-.038-7.606l-.309-1.086-.933.634c-.118.08-2.896 2.009-4.097 6.378a13.628 13.628 0 0 0-.467 2.733 64.857 64.857 0 0 0-9.837-13.148.809.809 0 0 0-.56-.246c-.838-.559-3.284-1.929-6.982-1.811-4.714.143-6.789 2.344-6.875 2.438l-.708.77.92.499c.144.078 3.571 1.916 6.64 1.928h.034c2.947 0 5.714-1.398 6.773-2.003 6.518 6.85 11.479 15.194 14.358 24.175.333 1.038.633 2.087.91 3.142-1.703-2.094-3.451-2.994-3.799-3.159a4.771 4.771 0 0 0-.247-1.421 4.747 4.747 0 0 0-2.403-2.76 4.747 4.747 0 0 0-3.651-.253 4.747 4.747 0 0 0-2.76 2.403 4.751 4.751 0 0 0-.253 3.651 4.747 4.747 0 0 0 2.403 2.76c.098.049.199.086.298.128a4.783 4.783 0 0 0-1.254 4.992 4.747 4.747 0 0 0 2.403 2.76 4.756 4.756 0 0 0 3.65.254 4.783 4.783 0 0 0 3.171-3.629.82.82 0 0 0 .032-.192c.027-.177.043-.356.05-.537.113-.656.52-1.857 1.955-2.76a13.734 13.734 0 0 1 1.483 3.204c.03.095.078.18.136.254.736 4.473.987 9.032.746 13.574-.193.934-.149 1.52-.144 1.575l.022.246a62.416 62.416 0 0 1-.67 5.358c-.09.529-.188 1.055-.291 1.58a13.013 13.013 0 0 0-2.454-3.792c-3.195-3.471-6.217-3.598-6.344-3.601l-1.045-.031.225 1.021c.035.16.889 3.954 2.89 6.281 1.887 2.195 4.689 3.376 5.892 3.807a62.376 62.376 0 0 1-14.502 26.656.815.815 0 1 0 1.2 1.104 64.003 64.003 0 0 0 14.864-27.285l.101.029-.014-.37a64.711 64.711 0 0 0 1.087-5.127c.304-1.788.526-3.587.678-5.391 1.133-.457 3.722-1.631 5.342-3.395 2.499-2.719 3.184-6.725 3.212-6.895l.184-1.114-1.117.175zm-13.71-28.145c.608-2.213 1.685-3.708 2.473-4.566.208 1.329.366 3.432-.225 5.328-.491 1.574-1.665 3.149-2.492 4.125-.226-1.014-.363-2.676.244-4.887zm-19.407-8.901h-.028c-1.653-.006-3.511-.669-4.685-1.172.893-.515 2.432-1.13 4.752-1.2 2.293-.069 4.039.52 5.092 1.021-1.205.585-3.154 1.351-5.131 1.351zm10.474 24.886a3.134 3.134 0 0 1 .166-2.406 3.162 3.162 0 0 1 2.823-1.748c.481 0 .958.111 1.401.332a3.132 3.132 0 0 1 1.583 1.819 3.153 3.153 0 0 1-1.985 3.988 3.154 3.154 0 0 1-3.988-1.985zm5.435 9.865a3.153 3.153 0 0 1-3.822-4.39 3.162 3.162 0 0 1 2.823-1.748c.481 0 .958.111 1.401.332a3.132 3.132 0 0 1 1.745 2.833 4.444 4.444 0 0 0-.051.558 3.13 3.13 0 0 1-2.096 2.415zm3.14-5.378a4.746 4.746 0 0 0-2.011-1.888c-.097-.048-.197-.088-.296-.13a4.817 4.817 0 0 0 1.217-1.867c.577.344 1.642 1.085 2.715 2.37a6.047 6.047 0 0 0-1.625 1.515zm-1.623 24.414c-1.078-1.254-1.793-3.092-2.181-4.309.974.338 2.446 1.099 4.018 2.806 1.554 1.689 2.251 3.394 2.562 4.517-1.237-.528-3.104-1.508-4.399-3.014zm12.21-10.011c-1.115 1.214-2.85 2.137-4.014 2.667.227-1.014.812-2.575 2.305-4.315 1.496-1.743 3.109-2.635 4.188-3.075-.377 1.288-1.13 3.254-2.479 4.723zM164.63 58.769a2.428 2.428 0 0 0 1.826-.417c.533-.378.887-.941.996-1.586a2.435 2.435 0 0 0-.417-1.826 2.427 2.427 0 0 0-1.586-.996 2.428 2.428 0 0 0-1.825.417 2.427 2.427 0 0 0-.996 1.586 2.45 2.45 0 0 0 2.002 2.822zm-.662-2.595c.049-.286.206-.537.443-.705.237-.168.525-.235.811-.185.286.049.537.206.705.443.168.237.234.525.185.811a1.083 1.083 0 0 1-.443.705 1.088 1.088 0 0 1-1.701-1.069zm-15.106 75.662a2.315 2.315 0 0 0-2.665 1.891 2.297 2.297 0 0 0 .394 1.724 2.295 2.295 0 0 0 1.886.974 2.314 2.314 0 0 0 2.277-1.924 2.315 2.315 0 0 0-1.892-2.665zm.551 2.438a.951.951 0 1 1-1.876-.318.951.951 0 0 1 1.876.318zm-96.687 3.368c-2.958-.167-5.81 1.096-6.902 1.648-6.155-7.178-10.678-15.766-13.088-24.885a60.786 60.786 0 0 1-.746-3.185c1.592 2.179 3.292 3.169 3.631 3.351-.015.472.04.954.173 1.432a4.79 4.79 0 0 0 4.608 3.498 4.783 4.783 0 0 0 4.604-6.065 4.77 4.77 0 0 0-2.547-3.025 4.785 4.785 0 0 0 1.509-4.92 4.787 4.787 0 0 0-5.889-3.322 4.784 4.784 0 0 0-3.354 3.458.812.812 0 0 0-.043.192 4.768 4.768 0 0 0-.077.534c-.147.649-.616 1.827-2.096 2.655a13.728 13.728 0 0 1-1.315-3.277.804.804 0 0 0-.123-.259 63.129 63.129 0 0 1-.044-13.597c.241-.922.227-1.511.225-1.565l-.009-.247c.24-1.783.553-3.558.946-5.317.117-.523.243-1.043.373-1.562a13.01 13.01 0 0 0 2.255 3.913c3.011 3.631 6.022 3.914 6.149 3.924l1.042.085-.172-1.032c-.027-.162-.683-3.994-2.561-6.423-1.771-2.29-4.508-3.614-5.688-4.106a62.375 62.375 0 0 1 15.861-25.871.814.814 0 1 0-1.142-1.164 64 64 0 0 0-16.254 26.48l-.099-.034-.005.37a64.903 64.903 0 0 0-1.351 5.064 63.995 63.995 0 0 0-.955 5.349c-1.155.397-3.801 1.436-5.511 3.114-2.636 2.586-3.527 6.552-3.564 6.719l-.241 1.103 1.123-.118c.142-.015 3.502-.4 6.627-3.681.391-.411.733-.816 1.035-1.211a64.172 64.172 0 0 0 2.048 19.155 63.985 63.985 0 0 0 2.612 7.785c-.76.72-2.931 2.918-3.821 5.327-1.28 3.464-.393 7.431-.355 7.598l.252 1.1.965-.586c.122-.074 2.996-1.857 4.421-6.158.327-.989.516-1.89.612-2.697a64.833 64.833 0 0 0 9.141 13.632.807.807 0 0 0 .544.271c.806.598 3.183 2.093 6.881 2.172l.329.003c4.489 0 6.575-1.996 6.663-2.082l.746-.733-.893-.545c-.139-.082-3.465-2.095-6.53-2.265zM37.985 84.653c1.008 1.304 1.627 3.17 1.952 4.406-.961-.395-2.401-1.234-3.865-3-1.465-1.767-2.073-3.506-2.325-4.644 1.209.592 3.023 1.666 4.238 3.238zM26.894 95.754c-1.582 1.662-3.238 2.47-4.339 2.853.446-1.269 1.3-3.196 2.718-4.588 1.177-1.154 2.957-1.987 4.146-2.455-.278 1.001-.943 2.529-2.525 4.19zm16.54 18.121a3.154 3.154 0 0 1-2.189 3.88 3.153 3.153 0 0 1-3.88-2.189 3.154 3.154 0 0 1 3.033-3.996c1.379 0 2.648.913 3.036 2.305zm-4.918-10.134a3.156 3.156 0 0 1 3.881 2.189c.226.811.123 1.66-.291 2.394a3.127 3.127 0 0 1-1.898 1.487 3.125 3.125 0 0 1-2.393-.291 3.13 3.13 0 0 1-1.594-2.926 4.53 4.53 0 0 0 .078-.542 3.146 3.146 0 0 1 2.217-2.311zm-3.414 5.209a4.743 4.743 0 0 0 2.195 2.139 4.807 4.807 0 0 0-1.308 1.798c-.558-.373-1.583-1.168-2.589-2.507a6.077 6.077 0 0 0 1.702-1.43zm-1.417 20.426c-.722 2.18-1.876 3.617-2.707 4.434-.14-1.335-.19-3.44.502-5.311.573-1.551 1.833-3.068 2.709-3.998.177 1.016.226 2.672-.504 4.875zm18.761 12.261c-2.295-.049-4.007-.728-5.032-1.282 1.238-.526 3.237-1.194 5.221-1.084 1.646.091 3.461.845 4.608 1.409-.927.467-2.498 1.007-4.797.957zm-12.553-1.358a2.434 2.434 0 0 0-1.845.322 2.43 2.43 0 0 0-1.077 1.532 2.45 2.45 0 0 0 2.388 2.981c1.12 0 2.133-.776 2.388-1.914a2.427 2.427 0 0 0-.322-1.844 2.43 2.43 0 0 0-1.532-1.077zm.527 2.624a1.087 1.087 0 1 1-2.122-.475 1.087 1.087 0 0 1 2.122.475zm.188-72.272c-.521.33-.882.845-1.017 1.447a2.296 2.296 0 0 0 .304 1.743 2.3 2.3 0 0 0 1.955 1.073c.433 0 .859-.123 1.234-.361a2.313 2.313 0 0 0-2.476-3.902zm2.041 1.441a.953.953 0 0 1-1.607 1.019.954.954 0 0 1 1.011-1.439c.248.057.46.205.596.42zm92.35 21.175c-.006-.002-.59-.216-1.597-.481l-.809-.213.005-.837c.099-13.728-7.609-22.984-7.938-23.372a1.017 1.017 0 0 0-1.027-.33c-.008.002-.844.206-2.191.718l-.83.316-.468-.755c-3.552-5.723-7.892-9.054-8.074-9.192a1.009 1.009 0 0 0-.617-.21h-.004c-.18 0-.358.049-.509.137-.005.003-.654.38-1.655 1.11l-.798.582-.649-.744c-3.115-3.571-6.341-5.403-6.478-5.479a1.03 1.03 0 0 0-.499-.131h-.002c-.171 0-.342.044-.493.128-.033.018-3.339 1.838-6.524 5.458l-.65.74-.795-.582a22.749 22.749 0 0 0-1.664-1.122 1.035 1.035 0 0 0-.517-.141h-.003c-.233 0-.445.074-.632.22-.177.138-4.381 3.451-7.922 9.142l-.471.757-.831-.321c-1.33-.513-2.186-.727-2.191-.728a1.066 1.066 0 0 0-.244-.031h-.002c-.292 0-.571.127-.765.349-.307.353-7.527 8.807-7.979 23.257l-.025.822-.801.192a21.677 21.677 0 0 0-2.101.599 1.022 1.022 0 0 0-.658.792c-.113.667-2.639 16.444 8.984 25.831 7.75 6.258 19.401 7.188 24.05 7.297l.953.023.095.947c.552 5.522 2.609 12.875 9.269 16.545.152.083.316.126.487.126h.002c.375 0 .718-.202.895-.528.131-.237.162-.513.086-.775a1.012 1.012 0 0 0-.487-.609c-5.728-3.157-7.595-9.645-8.153-14.531l-.134-1.17 1.177-.029c4.587-.118 16.083-1.054 23.743-7.189 11.623-9.303 9.204-25.126 9.095-25.796a1.022 1.022 0 0 0-.654-.792zm-35.458 27.385c-.036.822-.055 3.687-.059 4.376l-1.098-.029c-3.416-.095-15.135-.868-22.525-6.84-8.893-7.18-8.68-19.077-8.403-22.552l.06-.761.738-.195a31.094 31.094 0 0 1 7.73-.991h.061c5.973.012 11.115 1.799 15.283 5.31 6.752 5.691 7.992 17.069 8.213 21.682zm23.194-50.201l.772-.276.471.67c1.928 2.741 6.431 10.182 6.598 20.07l.021 1.248-1.239-.162a32.748 32.748 0 0 0-4.156-.28h-.062c-3.061 0-6.006.467-8.753 1.389l-1.257.421-.157-1.316c-.488-4.114-2.039-8.003-4.609-11.561l-.464-.642.475-.635c3.079-4.111 7.116-6.582 9.937-7.922l.13-.037c.079-.019.139-.039.159-.048l.039-.004.218-.158.119-.056a29.015 29.015 0 0 1 1.758-.701zm-5 .015c-3.315 1.814-6.142 4.153-8.402 6.951l-.77.954-.847-.886a32.32 32.32 0 0 0-5.015-4.275l-.693-.473.29-.788c1.847-5.022 6.038-8.592 8.372-10.273l.706-.509.646.583a36.767 36.767 0 0 1 6.104 7.187l.626.973-1.017.556zm-11.559-7.703c-1.802 1.727-3.284 3.589-4.405 5.533l-.937 1.626-.932-1.628c-1.119-1.956-2.6-3.824-4.399-5.551l-.747-.718.688-.775a26.976 26.976 0 0 1 4.802-4.249l.612-.419.61.422a27.02 27.02 0 0 1 4.772 4.27l.682.775-.746.714zm-7.224 10.438a32.098 32.098 0 0 0-4.972 4.177l-.847.871-.764-.945c-2.238-2.775-5.035-5.1-8.312-6.911l-1.009-.557.624-.969a38.446 38.446 0 0 1 5.979-7.136l.647-.6.716.515c2.331 1.68 6.516 5.25 8.348 10.293l.286.791-.696.471zm-7.64 7.321c-2.641 3.597-4.23 7.545-4.724 11.732l-.158 1.34-1.271-.45c-2.84-1.004-5.905-1.517-9.11-1.523a34.861 34.861 0 0 0-3.623.199l-1.26.138.067-1.266c.543-10.301 4.785-17.376 6.584-19.94l.473-.674.774.279c.539.194 1.129.431 1.707.686l.112.049.209.156c.076.042.168.07.364.111l.142.063c2.739 1.314 6.647 3.736 9.707 7.814l.48.639-.473.647zM89.06 94.896l-.58-.33.036-.666c.59-10.774 9.107-17.345 11.703-19.103l.606-.411.605.413c2.567 1.751 10.991 8.293 11.617 18.982l.041.683-.601.327a23.755 23.755 0 0 0-3.899 2.633c-3.042 2.542-5.387 6.33-6.97 11.258l-1.034 3.219-1.02-3.223c-1.56-4.933-3.889-8.73-6.921-11.287a23.918 23.918 0 0 0-3.583-2.495zm12.555 25.252c.28-4.515 1.648-15.616 8.279-21.16 4.166-3.482 9.294-5.246 15.242-5.246h.062c3.468.007 6.367.646 7.787 1.026l.74.197.056.763c.261 3.477.419 15.376-8.496 22.515-7.438 5.956-19.178 6.67-22.599 6.747l-1.129.025.068-2.724-.01-2.143zM82.065 32.59c.827 0 1.727-.058 2.69-.159-1.786 1.467-2.02 2.937-2.041 3.107l-.115.931.931-.115c.087-.011 2.155-.276 3.512-1.238 1.631-1.156 2.445-3.189 2.478-3.275l.044-.112c.868-.149 1.763-.309 2.686-.473 6.156-1.099 8.678.341 8.736.375.096.06.201.092.307.104a.862.862 0 0 0 .357.081.753.753 0 0 0 .644-.361l.007-.014a.756.756 0 0 0 .183-.079c.005-.003.105-.062.309-.144l.025-.007c.133.53.595 2.142 1.507 3.21 1.314 1.539 3.191 1.592 3.442 1.592h.025l.603-.013.103-.593c.04-.232.158-1.479-1.494-3.286a6.921 6.921 0 0 0-1.736-1.401c1.336-.097 3.2-.028 5.696.476 4.142.837 7.762 1.568 10.53 1.568 1.851 0 3.321-.327 4.312-1.168a.732.732 0 1 0-.948-1.116c-1.265 1.073-4.133.952-7.648.401.316-.143.626-.31.906-.508 1.631-1.156 2.445-3.189 2.478-3.275l.371-.943-1.012-.056c-.076-.005-1.934-.089-3.887 1.397-1.406 1.069-1.948 2.169-2.155 2.795-.871-.169-1.761-.349-2.658-.53-1.679-.339-3.103-.493-4.3-.531.232-.329.391-.688.462-1.068.157-.845-.095-1.751-.75-2.693-.222-.319-.537-.713-1.017-.928-.759-.341-1.732-.105-2.39.57.03-.372.041-.753.002-1.147-.123-1.237-.82-2.054-1.819-2.133-.7-.054-1.387.297-1.793.917-.706 1.079-.434 2.282-.236 3.161l.078.343a7.249 7.249 0 0 0-2.695-1.489c-.668-.196-1.181-.042-1.524.459-.233.339-.305.77-.199 1.183.323 1.259 1.069 2.216 2.018 2.985-1.362-.039-3.048.061-5.098.428-6.03 1.076-11.725 2.093-13.618.411a.733.733 0 0 0-.973 1.095c1.039.918 2.634 1.266 4.664 1.266zm4.131 1.332c-.436.309-.995.529-1.502.682a5.528 5.528 0 0 1 1.186-1.199 5.628 5.628 0 0 1 1.604-.862c-.333.491-.769 1.011-1.288 1.379zm30.758-5.261a5.628 5.628 0 0 1 1.604-.862c-.332.491-.768 1.012-1.287 1.379-.436.309-.995.529-1.502.682a5.52 5.52 0 0 1 1.185-1.199zm-11.029 4.447c.463.506.736.935.897 1.269a3.05 3.05 0 0 1-1.383-.907c-.347-.406-.617-.943-.815-1.434.383.222.832.559 1.301 1.072zm-2.512-4.737c.07-.311.136-.605.234-.896.164-.486.334-.989.638-1.32.174-.19.422-.308.617-.308a.35.35 0 0 1 .148.029c.151.067.3.264.414.428.291.419.617 1.034.513 1.59-.129.692-.905 1.186-1.589 1.418-.059.02-.123.034-.183.053-.44.064-.815.144-1.133.228.16-.425.253-.829.341-1.222zm-2.539-4.823c.105-.161.27-.26.425-.26l.028.001c.38.03.464.687.477.818.047.478-.011 1.001-.068 1.506l-.294 2.626-.601-2.655c-.195-.864-.307-1.516.033-2.036zm-4.348 2.662c1.61.522 2.948 1.78 3.617 3.328-1.631-.777-3.129-1.779-3.617-3.328zm-7.219 2.053a2.148 2.148 0 0 0 1.615-.369 2.15 2.15 0 0 0 .881-1.402 2.148 2.148 0 0 0-.369-1.615 2.15 2.15 0 0 0-1.402-.881 2.148 2.148 0 0 0-1.615.369 2.15 2.15 0 0 0-.881 1.402c-.097.57.034 1.143.369 1.615a2.15 2.15 0 0 0 1.402.881zm-.327-2.25a.693.693 0 0 1 .285-.454.693.693 0 0 1 .522-.119.693.693 0 0 1 .454.285.692.692 0 0 1 .119.522.693.693 0 0 1-.285.454.689.689 0 0 1-.522.119.693.693 0 0 1-.454-.285.693.693 0 0 1-.119-.522zm22.921 7.366a2.152 2.152 0 0 0-.881 1.402c-.097.57.034 1.143.369 1.614a2.154 2.154 0 0 0 1.769.912c.445 0 .877-.137 1.248-.4a2.15 2.15 0 0 0 .881-1.402 2.167 2.167 0 0 0-1.771-2.496 2.153 2.153 0 0 0-1.615.37zm1.943 1.882a.693.693 0 0 1-.285.454.692.692 0 0 1-.522.119.693.693 0 0 1-.454-.285.692.692 0 0 1-.119-.522.696.696 0 0 1 .807-.573.7.7 0 0 1 .573.807zm-9.289 136.079a2.431 2.431 0 0 0-1.825.417 2.427 2.427 0 0 0-.996 1.586 2.45 2.45 0 0 0 2.418 2.857c.503 0 .993-.155 1.411-.452.533-.378.887-.941.996-1.586a2.435 2.435 0 0 0-.417-1.826 2.436 2.436 0 0 0-1.587-.996zm.663 2.594a1.083 1.083 0 0 1-.443.705 1.089 1.089 0 0 1-1.258-1.774c.236-.168.525-.235.811-.185.286.049.537.206.705.443.168.237.234.525.185.811z" fill="#99BB96" data-color="1"/>
    </g>
</svg>
