<svg data-bbox="57.776 20 81.778 160.358" viewBox="0 0 200 200" height="200" width="200" xmlns="http://www.w3.org/2000/svg" data-type="color">
    <g>
        <path d="M99.311 64.033a9.02 9.02 0 0 0-9.019 9.019 9.02 9.02 0 1 0 18.042 0 9.017 9.017 0 0 0-9.023-9.019z" fill="#FFFFFF" data-color="1"/>
        <path d="M110.845 42.473A98.259 98.259 0 0 0 99.229 28.77a98.289 98.289 0 0 0-12.301 14.657c7.137 3.808 17.292 3.489 23.917-.954z" fill="#FFFFFF" data-color="1"/>
        <path d="M93.292 108.12v20.187c.882.492 2.74 1.125 5.358 1.125 2.616 0 4.475-.634 5.358-1.128v-20.183c-.884-.494-2.742-1.13-5.358-1.13-2.617.001-4.475.636-5.358 1.129z" fill="#FFFFFF" data-color="1"/>
        <path d="M113.96 47.164C109.454 50.158 103.691 52 98 52c-5.012 0-9.914-1.505-14.117-3.827C74.921 63.02 70 80.483 70 98c0 23.139 8.454 45.379 23.807 63h10.842c15.353-17.62 23.774-40.287 23.774-63.427 0-17.916-5.11-35.329-14.463-50.409zM110 130c0 3.493-4.865 5.876-11.35 5.876-6.496 0-11.65-2.383-11.65-5.876v-23c0-3.487 5.504-7 12-7 6.485 0 11 3.513 11 7v23zM99.311 88.518c-8.526 0-15.462-6.938-15.462-15.467 0-8.526 6.936-15.462 15.462-15.462 8.528 0 15.467 6.936 15.467 15.462-.001 8.529-6.939 15.467-15.467 15.467z" fill="#FFFFFF" data-color="1"/>
        <path d="M114.192 160.679l17.901 10.023c1.375-4.708 1.363-9.773-.089-14.737-1.389-4.748-3.96-9.059-7.453-12.596-2.744 5.671-6.068 11.597-10.359 17.31z" fill="#FFFFFF" data-color="1"/>
        <path d="M65.253 171.272l17.994-10.094c-4.244-5.741-7.615-11.875-10.444-17.801-7.421 7.531-10.357 18.307-7.55 27.895z" fill="#FFFFFF" data-color="1"/>
        <path d="M99.311 57.589c-8.526 0-15.462 6.936-15.462 15.462 0 8.528 6.936 15.467 15.462 15.467 8.528 0 15.467-6.938 15.467-15.467-.001-8.525-6.939-15.462-15.467-15.462zm0 24.486c-4.979 0-9.019-4.04-9.019-9.023a9.02 9.02 0 0 1 9.019-9.019 9.017 9.017 0 0 1 9.023 9.019 9.02 9.02 0 0 1-9.023 9.023z" fill="#45BAA5" data-color="2"/>
        <path d="M126.962 136.828a101.217 101.217 0 0 0 7.905-39.255c0-30.827-13.769-58.511-35.639-77.573C77.365 39.062 64 67.173 64 98c0 13.634 2.301 26.218 7.203 38.148-13.036 10.698-17.69 29.471-8.978 44.21l27.057-15.178c.549.624 1.085 1.208 1.649 1.82h16.595a99.258 99.258 0 0 0 1.605-1.77l25.992 14.553c8.507-14.403 4.209-32.238-8.161-42.955zM99.229 28.77a98.374 98.374 0 0 1 11.616 13.703c-6.624 4.443-16.78 4.762-23.917.954A98.279 98.279 0 0 1 99.229 28.77zM65.253 171.272c-2.807-9.587.13-20.364 7.549-27.895 2.83 5.926 6.201 12.06 10.444 17.801l-17.993 10.094zM104.649 161H93.807C78.454 143.379 70 121.139 70 98c0-17.517 4.921-34.98 13.883-49.827C88.086 50.495 92.988 52 98 52c5.691 0 11.454-1.842 15.96-4.836 9.353 15.08 14.463 32.493 14.463 50.409 0 23.14-8.421 45.807-23.774 63.427zm27.444 9.701l-17.901-10.023c4.291-5.712 7.614-11.639 10.359-17.31 3.493 3.537 6.064 7.848 7.453 12.596 1.452 4.964 1.464 10.03.089 14.737z" fill="#45BAA5" data-color="2"/>
        <path d="M99 100c-6.496 0-12 3.513-12 7v23c0 3.493 5.155 5.876 11.65 5.876 6.485 0 11.35-2.383 11.35-5.876v-23c0-3.487-4.515-7-11-7zm5.009 28.305c-.883.493-2.742 1.128-5.358 1.128-2.618 0-4.476-.633-5.358-1.125V108.12c.883-.493 2.741-1.128 5.358-1.128 2.616 0 4.475.635 5.358 1.13v20.183z" fill="#45BAA5" data-color="2"/>
    </g>
</svg>
